<svg xmlns="http://www.w3.org/2000/svg" viewBox="0 0 89.21 15.95"><defs><style>.cls-1{fill:#fff;stroke:#888;stroke-linejoin:round;stroke-width:0.75px;}</style></defs><g id="Layer_2" data-name="Layer 2"><g id="Layer_2-2" data-name="Layer 2"><polygon class="cls-1" points="8.27 0.38 10.15 6.07 16.16 6.11 11.32 9.66 13.14 15.38 8.27 11.89 3.39 15.38 5.21 9.66 0.38 6.11 6.38 6.07 8.27 0.38"/><polygon class="cls-1" points="26.38 0.46 28.27 6.16 34.27 6.19 29.44 9.75 31.25 15.47 26.38 11.97 21.5 15.47 23.32 9.75 18.49 6.19 24.49 6.16 26.38 0.46"/><polygon class="cls-1" points="44.54 0.57 46.43 6.26 52.43 6.3 47.59 9.86 49.41 15.58 44.54 12.08 39.66 15.58 41.48 9.86 36.65 6.3 42.65 6.26 44.54 0.57"/><polygon class="cls-1" points="62.62 0.53 64.51 6.22 70.51 6.26 65.68 9.82 67.49 15.53 62.62 12.04 57.74 15.53 59.56 9.82 54.73 6.26 60.73 6.22 62.62 0.53"/><polygon class="cls-1" points="80.95 0.5 82.84 6.2 88.84 6.24 84.01 9.79 85.82 15.51 80.95 12.02 76.07 15.51 77.89 9.79 73.06 6.24 79.06 6.2 80.95 0.5"/></g></g></svg>